<svg xmlns="http://www.w3.org/2000/svg" xmlns:xlink="http://www.w3.org/1999/xlink" version="1.1" id="Layer_1" x="0px" y="0px" width="100px" height="100px" viewBox="0 0 100 100" style="enable-background:new 0 0 100 100;" xml:space="preserve">
<g>
	<path d="M70.212,4.325h-0.716h-7.223h-2.011V66.88c-3.647-1.48-7.999-1.992-12.521-1.092   c-10.262,2.058-17.264,10.305-15.636,18.427c1.624,8.126,11.257,13.051,21.524,10.993c8.679-1.736,14.969-7.921,15.726-14.707h0.14   V29.856c13.503,2.141,15.496,12.803,13.85,17.264c-0.622,1.699,0.479,2.976,2.57,0C100.844,25.839,68.477,18.369,70.212,4.325z"/>
	<g>
		<path d="M47.381,47.258H10.139v7.749h37.243V47.258z"/>
	</g>
	<g>
		<path d="M47.381,32.897H10.139v7.748h37.243V32.897z"/>
	</g>
	<g>
		<path d="M47.381,18.536H10.139v7.749h37.243V18.536z"/>
	</g>
</g>
</svg>